PathFileType	4	(X/Y/Z)	/Users/niels/Desktop/University/Third Semester/Perception and Action/Exam/Gymnastics Motion Tracking/Code for Gym Tracking/Analyzed Data/Webcam_Backflip/id18_1_trajectory_Sports2D/id18_1_trajectory_Sports2D_px_person00.trc
DataRate	CameraRate	NumFrames	NumMarkers	Units	OrigDataRate	OrigDataStartFrame	OrigNumFrames
29.872340425531917	29.872340425531917	10	22	m	29.872340425531917	29	235
Frame#	Time	Hip			RHip			RKnee			RAnkle			RBigToe			RSmallToe			RHeel			LHip			LKnee			LAnkle			LBigToe			LSmallToe			LHeel			Neck			Head			Nose			RShoulder			RElbow			RWrist			LShoulder			LElbow			LWrist		
		X1	Y1	Z1	X2	Y2	Z2	X3	Y3	Z3	X4	Y4	Z4	X5	Y5	Z5	X6	Y6	Z6	X7	Y7	Z7	X8	Y8	Z8	X9	Y9	Z9	X10	Y10	Z10	X11	Y11	Z11	X12	Y12	Z12	X13	Y13	Z13	X14	Y14	Z14	X15	Y15	Z15	X16	Y16	Z16	X17	Y17	Z17	X18	Y18	Z18	X19	Y19	Z19	X20	Y20	Z20	X21	Y21	Z21	X22	Y22	Z22
29	0.9707977207977209	0.9487228240910281	-0.7660042489876019	0.0	0.9446663335869991	-0.7667748796714365	0.0	1.0116971102400922	-0.8421982849004692	0.0	0.9740403524925884	-0.9033387445149473	0.0	1.002854656836217	-0.9215687925296978	0.0	0.9845617806150785	-0.9280975143017247	0.0	0.9609103911674041	-0.9062362591383515	0.0	0.9536906587844065	-0.7644410182672712	0.0	1.0119340988137557	-0.8376955014192788	0.0	0.9695069138639671	-0.8925925005858617	0.0	1.0092824978745822	-0.912255026455828	0.0	0.9913213868528532	-0.8958721572741813	0.0	0.9543312634110279	-0.9101729347919947	0.0	1.0026534234455722	-0.6460460892870586	0.0	1.0249913087846936	-0.5884121296621466	0.0	1.0353791701411725	-0.6200127029095223	0.0	0.9967483526097097	-0.6595305634608105	0.0	1.036367396186654	-0.6813663363510728	0.0	1.0756539088495547	-0.6852476442007228	0.0	1.0005957324290042	-0.6561875876291523	0.0	1.0298288813891459	-0.6724989302558657	0.0	1.0639690451146797	-0.7160118494408564	0.0
30	1.0042735042735043	0.9523381338779819	-0.7748633251333492	0.0	0.9496219511593125	-0.7757127758379994	0.0	1.0087438660760868	-0.855741643378624	0.0	0.9711602386301575	-0.9033328873495601	0.0	0.9952768731673877	-0.9195251094470587	0.0	0.9752106564031827	-0.9279377655118688	0.0	0.9573996011039275	-0.9006831850694043	0.0	0.9551275069065485	-0.77387125907533	0.0	1.0068408153874508	-0.8509155345904765	0.0	0.9667588666707065	-0.8962431830793245	0.0	0.9966857636776711	-0.9093311260945944	0.0	0.9790552699932802	-0.8967311114285844	0.0	0.9497807975522536	-0.9055108893737086	0.0	0.9952778950303137	-0.6488927774361396	0.0	1.0116519657713212	-0.589257200419238	0.0	1.0223998790021402	-0.6206672424315998	0.0	0.9934490739289498	-0.6588185084198145	0.0	1.0392926734612327	-0.6579875738965424	0.0	1.079488822965984	-0.6412939151522057	0.0	0.9930223524145751	-0.6578634094193844	0.0	1.0207396018825863	-0.651544239102772	0.0	1.0518638252161574	-0.6986924669452841	0.0
31	1.0377492877492878	0.957353507647102	-0.7762990069211978	0.0	0.955910668733141	-0.7771154400842726	0.0	1.0042671978904152	-0.8615159523787898	0.0	0.9686127810648756	-0.8998875468968115	0.0	0.9869571864042989	-0.9135413573270913	0.0	0.967280275841507	-0.9229949627730163	0.0	0.9554668130679977	-0.8929424296458702	0.0	0.9586203680776997	-0.7758986593826092	0.0	1.0012742833128938	-0.8564029099446845	0.0	0.964227708477133	-0.8951456876055075	0.0	0.9839979206477434	-0.9041412311843164	0.0	0.968483328238105	-0.8968498890540958	0.0	0.9477685559353832	-0.8982270761083018	0.0	0.9885887010014872	-0.6461592371201702	0.0	0.9989293245614677	-0.584813208180862	0.0	1.0089441906780106	-0.6158371287262613	0.0	0.989456343201123	-0.6519603793693645	0.0	1.0316711492369068	-0.6282642166962308	0.0	1.064344388257784	-0.5932361117444392	0.0	0.9860084781331444	-0.6533100677132343	0.0	1.004499679735145	-0.6248333955478517	0.0	1.0264275641469238	-0.6712756491695118	0.0
32	1.0712250712250713	0.9636486212323484	-0.769559385552811	0.0	0.9631735847813367	-0.770284185437655	0.0	0.9992781890272624	-0.8585284729832067	0.0	0.9677317238209366	-0.8965758329496316	0.0	0.9803514173774915	-0.9076763056654895	0.0	0.9636289643278262	-0.9172043203327475	0.0	0.9566426798907683	-0.8887198343703405	0.0	0.9644641374537026	-0.7696830596120032	0.0	0.9959206865639685	-0.8536629812733348	0.0	0.9635878823958232	-0.8934469852497	0.0	0.9755231316760284	-0.9008386413758078	0.0	0.9631827739223733	-0.8985572247032327	0.0	0.9494925977751835	-0.8938407627112512	0.0	0.9821389011687548	-0.6371854646843658	0.0	0.9863355281705801	-0.5738839655872153	0.0	0.995269758829981	-0.6046092195827005	0.0	0.9836514284309412	-0.6391924673048553	0.0	1.0151466732644938	-0.5960131093831071	0.0	1.035232580980378	-0.5475218466676005	0.0	0.9800301176710227	-0.6422549754182084	0.0	0.9866174462527497	-0.5955609085019397	0.0	0.9973508997334833	-0.6307506402119173	0.0
33	1.1047008547008548	0.97060122727793	-0.7547584670989451	0.0	0.9708127110125951	-0.7553931389962721	0.0	0.9954767790124164	-0.8470902277157233	0.0	0.9693031717022323	-0.8943470961989818	0.0	0.9779239020430488	-0.9038416044090559	0.0	0.9655081696315623	-0.9126567227435036	0.0	0.9610598111067352	-0.8893641470081609	0.0	0.9718854104690885	-0.7552441546056318	0.0	0.9920986841234661	-0.843108163077846	0.0	0.9657390148313798	-0.8924434689862301	0.0	0.9738870532006525	-0.9004463567602007	0.0	0.9649892471986459	-0.9018525329068605	0.0	0.9547141752375011	-0.8934599564971369	0.0	0.9751835045859036	-0.6220056796962544	0.0	0.9735602559205039	-0.5564186340555997	0.0	0.9819712698092199	-0.5869999572357558	0.0	0.9755278042707859	-0.6211189818211807	0.0	0.9930984362619228	-0.5636583078732327	0.0	0.9992420009495266	-0.506986730276886	0.0	0.9744232329765423	-0.6251753637898733	0.0	0.9706720844648169	-0.5658880543287724	0.0	0.9720536963419779	-0.5789073811906158	0.0
34	1.1381766381766383	0.9771937222550953	-0.7325021765055677	0.0	0.9779704363249587	-0.7331123435327311	0.0	0.9949017587295327	-0.827696952291058	0.0	0.9736458346721294	-0.8901457490787612	0.0	0.9811679216913138	-0.9004258064853894	0.0	0.9724398926253566	-0.9078569331155516	0.0	0.967910185419085	-0.8904777437573839	0.0	0.9794562088822658	-0.7331545111315902	0.0	0.9916375803327018	-0.8249257641373478	0.0	0.9708814290302505	-0.8891210470547561	0.0	0.9793325436813263	-0.8999606202461358	0.0	0.9734199627196833	-0.9034813127079995	0.0	0.9624212331891328	-0.8928952466683138	0.0	0.9669561149074267	-0.6011745148552828	0.0	0.9605658866087323	-0.5332902330508607	0.0	0.9696091809813046	-0.563798689523918	0.0	0.9651597608749657	-0.5984061422598962	0.0	0.9692965218387194	-0.5322233158118883	0.0	0.9631991168082297	-0.47165552452445986	0.0	0.967814763324563	-0.6029818734822516	0.0	0.957067661730034	-0.5368455773034606	0.0	0.9530009091334191	-0.523354866958388	0.0
35	1.1716524216524218	0.9823065194460235	-0.70393501607335	0.0	0.983606126188859	-0.7046309411086102	0.0	0.9992458887448297	-0.8000365325151381	0.0	0.9811772149114669	-0.8788931576157678	0.0	0.9902937731753307	-0.893115214786095	0.0	0.9835182854814534	-0.8987082540637673	0.0	0.9767952053310383	-0.8850637696660565	0.0	0.9856910754042142	-0.7046095230297849	0.0	0.9962009612341556	-0.7984294793998943	0.0	0.9792719146089027	-0.8783825824952718	0.0	0.9906663194952334	-0.8941244079969211	0.0	0.9869094387582837	-0.8983570521856752	0.0	0.9721945514960023	-0.8856834047946308	0.0	0.9570429579247701	-0.5758829203262017	0.0	0.9474376444121402	-0.5060232959490454	0.0	0.9582019913473602	-0.5364943447487142	0.0	0.9529750863158505	-0.5720094536144956	0.0	0.9468690463632573	-0.5019460788435192	0.0	0.932287859935984	-0.44041255633451326	0.0	0.959067740410532	-0.5768886335700948	0.0	0.9447599116856394	-0.5086162346699776	0.0	0.93892539250134	-0.47208985757408084	0.0
36	1.2051282051282053	0.9850228147819402	-0.671127305812033	0.0	0.9867216521789917	-0.6720473317845459	0.0	1.0089757021220742	-0.7634142190713707	0.0	0.9925353342799988	-0.8563181546066675	0.0	1.0045793011574184	-0.8769146984146331	0.0	0.9983561235513523	-0.8806839381649798	0.0	0.9882711734887437	-0.8673353925303224	0.0	0.9894309674245582	-0.6717753204078775	0.0	1.006339072740213	-0.7626968130891413	0.0	0.9914612767265931	-0.8560086593027725	0.0	1.00647756251502	-0.877893262266923	0.0	1.0041295028417663	-0.8818596631083541	0.0	0.9846231660722847	-0.8665593555700544	0.0	0.9455768422590526	-0.5480870135732356	0.0	0.9343998527828862	-0.4767130682328248	0.0	0.947272142841024	-0.5072591379223876	0.0	0.9396380360694767	-0.5435303751532036	0.0	0.9279163519050345	-0.47299132764271046	0.0	0.9095581626117208	-0.41229259793633755	0.0	0.947909590103994	-0.5485604326493837	0.0	0.9331193064051878	-0.4811262385848516	0.0	0.927166136640067	-0.42927102199043154	0.0
37	1.2386039886039886	0.9849009469227791	-0.6370234952151199	0.0	0.9867481684963822	-0.6383125697866515	0.0	1.0226352552081233	-0.7181043410442552	0.0	1.008066720847303	-0.820689893882573	0.0	1.0232785165407594	-0.8481457029764738	0.0	1.0170649733360222	-0.8506151906126772	0.0	1.0031997386177036	-0.8348295040520396	0.0	0.9900621226152582	-0.6376538352284681	0.0	1.0206431594911825	-0.7178723154643369	0.0	1.00775624067547	-0.8202755276112911	0.0	1.0259646571854673	-0.8481358762499551	0.0	1.0245381680145016	-0.8513636959650106	0.0	1.000525781413524	-0.8333377820344119	0.0	0.933125454409026	-0.5200958631130238	0.0	0.9219692260627583	-0.44776611798190613	0.0	0.9365453930871529	-0.47856157088146256	0.0	0.926026011929978	-0.5151091337948233	0.0	0.9136516595470418	-0.4459921575258584	0.0	0.8961740790237755	-0.3871264822462757	0.0	0.9349754110617926	-0.5201137664254183	0.0	0.9225557345359174	-0.45482042012684887	0.0	0.9165537017553502	-0.3955777985136373	0.0
38	1.272079772079772	0.9822445127370436	-0.6046827447862382	0.0	0.9839692465895898	-0.6063898772624919	0.0	1.0368803290424726	-0.6659864222999107	0.0	1.0271721187478937	-0.7729381588490307	0.0	1.0459612749220875	-0.8052400089945863	0.0	1.0396693098738417	-0.8072388079242913	0.0	1.021779078379924	-0.7885442111922154	0.0	0.9877195715286541	-0.6052630048675122	0.0	1.0355935205951938	-0.6657741641394057	0.0	1.0275077246461735	-0.7719891105468887	0.0	1.04880355305526	-0.8038973117219308	0.0	1.0479237650702695	-0.8062733118593531	0.0	1.0199733003721918	-0.7869704330559242	0.0	0.9204974953910483	-0.4939355523202498	0.0	0.9108023559111085	-0.4213586627939028	0.0	0.9264306020652859	-0.4524640807420799	0.0	0.9131728267340714	-0.48884868837373957	0.0	0.9046499466124148	-0.42219231400845614	0.0	0.8919117295942219	-0.365579426506387	0.0	0.9214413612418318	-0.49374240190962543	0.0	0.9141347598786956	-0.4310262378868518	0.0	0.9087476626253147	-0.37047480923107035	0.0
